<svg width="12" height="12" viewBox="0 0 12 12" fill="none" xmlns="http://www.w3.org/2000/svg">
<path d="M6 12C5.21207 12 4.43185 11.8448 3.7039 11.5433C2.97595 11.2417 2.31451 10.7998 1.75736 10.2426C0.632141 9.11742 0 7.5913 0 6C0 4.4087 0.632141 2.88258 1.75736 1.75736C2.88258 0.632141 4.4087 0 6 0C6.78793 0 7.56815 0.155195 8.2961 0.456723C9.02405 0.758251 9.68549 1.20021 10.2426 1.75736C10.7998 2.31451 11.2417 2.97595 11.5433 3.7039C11.8448 4.43185 12 5.21207 12 6C12 7.5913 11.3679 9.11742 10.2426 10.2426C9.11742 11.3679 7.5913 12 6 12ZM9 7.2L6 4.2L3 7.2H9Z" fill="white"/>
</svg>
